# xmcd
#
# Track frame offsets: 
#        150
#        13180
#        28334
#        42328
#        57656
#        72267
#        86648
#        100360
#        111996
#        124092
#        135575
#        148072
#        160983
#        174242
#        187014
#        204843
#        224504
#        249334
#        270841
#        297284
#        315740
#        338703
#
# Disc length: 4733 seconds
#
# Revision: 2
# Processed by: cddbd v1.5.2PL0 Copyright (c) Steve Scherf et al.
# Submitted via: ExactAudioCopyFreeDBPlugin 1.0
#
DISCID=50127b16
DTITLE=Ray Charles - Fifteen Classic Albums Plus Bonus Singles [Real G
DTITLE=one Music]
DYEAR=2011
DGENRE=Rhythm and Blues
TTITLE0=Ain't That Love
TTITLE1=Drown in My Own Tears
TTITLE2=Come Back Baby
TTITLE3=Sinner's Prayer
TTITLE4=Funny (But I Still Love You)
TTITLE5=Losing Hand
TTITLE6=A Fool for You
TTITLE7=Hallelujah I Love Her So
TTITLE8=Mess Around
TTITLE9=This Little Girl of Mine
TTITLE10=Mary Ann
TTITLE11=Greenbacks
TTITLE12=Don't You Know
TTITLE13=I Got a Women
TTITLE14=The Ray
TTITLE15=My Melancholy Baby
TTITLE16=Black Coffee
TTITLE17=There's No You
TTITLE18=Doodlin'
TTITLE19=Sweet Sixteen Bars
TTITLE20=I Surrender Dear
TTITLE21=Undecided
EXTD=
EXTT0=
EXTT1=
EXTT2=
EXTT3=
EXTT4=
EXTT5=
EXTT6=
EXTT7=
EXTT8=
EXTT9=
EXTT10=
EXTT11=
EXTT12=
EXTT13=
EXTT14=
EXTT15=
EXTT16=
EXTT17=
EXTT18=
EXTT19=
EXTT20=
EXTT21=
PLAYORDER=
